PathFileType	4	(X/Y/Z)	Patient4_TMGait_0pt4_02_left_21.trc.trc
DataRate	CameraRate	NumFrames	NumMarkers	Units	OrigDataRate	OrigDataStartFrame	OrigNumFrames
77.777777777778	77.777777777778	5	33	mm	77.777777777778	89	       141
Frame#	Time	Sacral			L.Shoulder			Chest			R.Shoulder			Neck			R.ASIS			L.ASIS			R.Thigh.Superior			R.Thigh.Lateral			R.Thigh.Inferior			R.Patella			L.Thigh.Superior			L.Thigh.Lateral			L.Thigh.Inferior			L.Patella			L.Shank.Superior			L.Shank.Lateral			L.Shank.Inferior			R.Shank.Superior			R.Shank.Lateral			R.Shank.Inferior			R.Heel			R.Midfoot.Superior			R.Midfoot.Lateral			R.Toe			L.Heel			L.Midfoot.Lateral			L.Midfoot.Superior			L.Toe			L.Elbow			L.Wrist			R.Elbow			R.Wrist			
		X1	Y1	Z1	X2	Y2	Z2	X3	Y3	Z3	X4	Y4	Z4	X5	Y5	Z5	X6	Y6	Z6	X7	Y7	Z7	X8	Y8	Z8	X9	Y9	Z9	X10	Y10	Z10	X11	Y11	Z11	X12	Y12	Z12	X13	Y13	Z13	X14	Y14	Z14	X15	Y15	Z15	X16	Y16	Z16	X17	Y17	Z17	X18	Y18	Z18	X19	Y19	Z19	X20	Y20	Z20	X21	Y21	Z21	X22	Y22	Z22	X23	Y23	Z23	X24	Y24	Z24	X25	Y25	Z25	X26	Y26	Z26	X27	Y27	Z27	X28	Y28	Z28	X29	Y29	Z29	X30	Y30	Z30	X31	Y31	Z31	X32	Y32	Z32	X33	Y33	Z33	

89	29.331428571429	917.028096133273	995.109584954691	503.052531558291	1089.480467184213	1432.096832841136	331.275747637333	1187.239270552099	1364.671375428100	495.908379450833	1094.263727962045	1431.410099319792	667.436109255209	1064.285841592206	1491.366067335750	488.800990960134	1145.032775543031	943.886471709846	631.029363849396	1140.477829340444	958.535400759494	354.973272081077	1203.596888355081	747.691117105124	602.848744268930	1130.970578522587	632.974486354893	661.319966121442	1213.690670516059	587.750488529845	581.740065271764	1220.790274353588	499.956459637660	587.663296826197	1198.058839234792	746.822708085209	385.886837832979	1128.635854592641	625.849403935408	310.766965253557	1218.962842909600	549.416955808221	373.025308111868	1218.187017841292	463.745538651631	368.839689019255	1153.537092761720	400.452509539737	358.267315298181	1018.254519595410	351.392036458831	301.127140798289	1006.760508197059	223.082832616342	356.841975243955	1196.113362619100	408.843921709841	595.388713358771	1128.646074842092	302.566402008110	658.176907643626	1174.945268741750	209.489174840465	594.621709657499	1046.864000415586	42.270378333784	564.143454952146	1216.846404823809	98.234250421154	598.660232959795	1130.717757681874	37.028840003750	638.787182144165	1338.344000238672	48.671946417893	625.925141375547	818.229887646077	145.952943721628	386.592562002633	881.825222662024	109.956024100282	306.427159969786	984.242714016086	125.902901024507	332.727626138321	1072.428034051385	33.113399819038	301.826260372178	1102.302751395967	1080.059926202185	212.685574561357	1265.654001355948	873.039449703966	211.644995323302	1061.584113439452	1083.364057640524	786.143784562724	1166.637317600133	844.018918565529	782.674917444383	
90	29.344285714286	916.971463191480	995.321089222799	506.582635264888	1087.904695467252	1432.290976145622	333.785982127663	1187.235958801883	1364.782420862480	497.467284642179	1096.051170716771	1431.476609581116	669.931724867938	1064.415743645235	1491.580344403029	491.602913787056	1145.782678618419	944.186618616077	632.912510125189	1139.130797930277	958.611574068528	357.017850469013	1202.829367514821	747.203008691658	605.137427717798	1129.327714939174	632.750411797334	663.205442253547	1211.764632935054	587.186026854040	583.606506060229	1218.219148105884	499.292771609185	589.183231561509	1201.380382172478	750.150407357847	387.373900518424	1135.908946664096	627.749120165947	311.612181121834	1228.633215576100	553.426814136952	373.318640266570	1229.402524973042	466.972349519118	368.753479831191	1163.696721187235	403.283554777462	358.552073143988	1026.635555071466	357.535892690318	302.462352171756	1012.950560638351	229.107339536503	357.817879487100	1193.068754366431	408.306630054954	596.623766029671	1125.077055177822	302.215709296315	659.140632438500	1170.659297673115	209.100834230559	595.105111982067	1041.757861687234	42.302469094135	564.231278224417	1211.860921261481	98.163092059311	599.004069925513	1125.585276589728	36.990729397278	638.910714852435	1333.273904593845	48.417035322646	626.110339657334	822.230096825719	158.132794223889	388.472077045116	884.257072963165	119.728353917123	307.951970637294	987.811800630905	131.137276264907	333.902503030818	1071.668246004684	33.017046494864	302.465434121193	1096.299908900206	1079.675263030488	216.083755124178	1250.300457867455	865.579877907517	212.535239634391	1071.393805277920	1083.050731759377	790.351388322347	1185.154452533014	847.841180338608	784.959602963038	
91	29.357142857143	916.796996508361	995.566368756951	509.994144109346	1086.324650527126	1432.456765013426	336.113164570864	1187.227116241143	1364.879399504319	498.827000697488	1097.895047485215	1431.586521090065	672.231921809399	1064.598949150805	1491.818536603418	494.193135977294	1146.379993143473	944.423942178005	634.684534981309	1137.575331248404	958.630810716092	359.018582534947	1201.870883985888	746.690839041105	607.156555040818	1127.604782276479	632.544425562321	664.956310817989	1209.653994018048	586.611365130836	585.261458250054	1215.424735489620	498.636736330769	590.559625523604	1204.289412686630	753.562710533223	388.574817739065	1142.413342878724	630.000018528291	312.212063710733	1237.400827489866	557.763719709253	373.273801948422	1239.797287640761	470.670640145716	368.386966139602	1173.355936131008	406.482968666369	358.608326434649	1034.831416962714	363.259829199568	303.655261360785	1019.656767859258	234.685880870459	358.749534112651	1189.868877129812	407.787759317778	597.742621402585	1121.397476138312	301.873166478471	660.017331202673	1166.286357810348	208.719482732418	595.523052014772	1036.599940740877	42.362652076118	564.281417373946	1206.846123429774	98.051660330539	599.323791342393	1120.401755976000	36.955111599383	639.021423987649	1328.166318407406	48.060120009361	626.280184323677	827.417387054316	168.424151744598	390.429357986663	888.108459627924	128.192297159135	309.545047077674	992.520329616925	136.054248890662	335.090152293119	1072.921993012693	33.269645098860	303.055616382536	1090.016229809697	1079.359076221789	219.197986249118	1234.385720217344	858.750165816093	213.527528554076	1081.294284564065	1083.033874529097	794.392306788565	1203.695636891563	852.345065014089	786.899945516619	
92	29.370000000000	916.517281795777	995.871800814529	513.285061765739	1084.780199005533	1432.629201783741	338.261214156611	1187.226194855618	1364.991495764044	500.003155163809	1099.784673170623	1431.775711305822	674.333372722290	1064.846075845774	1492.107170205326	496.563406904373	1146.837736508654	944.610612123184	636.353934092772	1135.886118669057	958.671894624496	360.953352580484	1200.752460808407	746.180213588233	608.876321622871	1125.825966544926	632.379847424848	666.554927800834	1207.383804955994	586.043443342586	586.687693447614	1212.439563782168	498.006551556218	591.768502095478	1206.745931582618	757.032186110862	389.523929980954	1148.050795447404	632.557345756993	312.610588042842	1245.173035695767	562.350475667280	372.911266687382	1249.253319517020	474.776715954813	367.741368797901	1182.436745787036	409.977314212260	358.425692678075	1042.801454922480	368.327452933492	304.655086177411	1026.978712083794	239.548073468600	359.551750444344	1186.534044875202	407.303534343785	598.728740477735	1117.627108917289	301.560315766180	660.801453551854	1161.848384302323	208.360229745002	595.877074705779	1031.410219347945	42.445154824086	564.306550243260	1201.807348718114	97.918634766981	599.606167462303	1115.191725254694	36.927071765165	639.124633210365	1323.036774050476	47.644806042767	626.435650720193	833.920906182858	176.262935776844	392.334389387949	893.593766800789	134.845314704153	311.089267271269	998.601009810921	140.347731978677	336.169090124292	1076.630374102698	33.872407266031	303.514942141364	1083.459280339294	1079.152209485846	222.060470087775	1217.991379362235	852.601725031382	214.630987254963	1091.229901221739	1083.335020048565	798.205352836298	1222.169914229542	857.559486729050	788.448748001355	
93	29.382857142857	916.146377151163	996.265444545728	516.458236499809	1083.300481235877	1432.841563429061	340.242128257038	1187.242720706128	1365.146634298267	501.016108103054	1101.709830004317	1432.075286351200	676.239360738180	1065.163135724439	1492.468558756411	498.716732636746	1147.173714942716	944.761102084973	637.917929068146	1134.122659887404	958.813432419042	362.792721506375	1199.496750352164	745.689311745191	610.289999072284	1123.983046847699	632.272153941888	667.987680767973	1204.956412947736	585.493876759477	587.882725704777	1209.273395986432	497.418274983107	592.794524750211	1208.724979661560	760.535433516468	390.258247835933	1152.770972498922	635.360758887645	312.852401494066	1251.901404673109	567.100157748808	372.265855210478	1257.695561444246	479.217728784547	366.839471328531	1190.904739292744	413.680968409940	358.006952597626	1050.553901017712	372.519125611654	305.412979162882	1035.042769785508	243.456312409022	360.139136519726	1183.063445793516	406.867500106034	599.572327121258	1113.765569491299	301.293135655845	661.488537100519	1157.354825435043	208.036360354503	596.171782913665	1026.205173688850	42.542483423556	564.317447499883	1196.748351169588	97.781281091937	599.844622730593	1109.974264403765	36.909260023153	639.223500275977	1317.896183506068	47.212675610465	626.577752089144	841.886646314628	181.216616065933	394.050555825019	900.914847648910	139.296522196927	312.452336375335	1006.281790956207	143.738510629380	337.012037647331	1083.153974683684	34.781612781374	303.738338682651	1076.645722875427	1079.095576680513	224.712036402454	1201.208949426390	847.172581132230	215.853577246871	1101.140576623408	1083.968130004859	801.740313287548	1240.493129763004	863.509414913597	789.559594302377	
